<?xml version="1.0" standalone="no"?>
<!DOCTYPE svg PUBLIC "-//W3C//DTD SVG 20010904//EN"
 "http://www.w3.org/TR/2001/REC-SVG-20010904/DTD/svg10.dtd">
<svg version="1.0" xmlns="http://www.w3.org/2000/svg"
 width="1000.000000pt" height="1000.000000pt" viewBox="0 0 1000.000000 1000.000000"
 preserveAspectRatio="xMidYMid meet">
<metadata>
Created by potrace 1.11, written by Peter Selinger 2001-2013
</metadata>
<g transform="translate(0.000000,1000.000000) scale(0.100000,-0.100000)"
fill="#000000" stroke="none">
<path d="M4758 9905 c-2 -2 -34 -6 -73 -10 -73 -7 -112 -12 -155 -20 -14 -3
-41 -7 -60 -10 -64 -8 -104 -16 -165 -32 -33 -8 -68 -17 -78 -18 -45 -9 -202
-61 -296 -98 -106 -41 -344 -158 -372 -183 -8 -8 -19 -14 -23 -14 -4 0 -51
-30 -104 -67 -390 -272 -701 -636 -961 -1126 -60 -112 -163 -336 -181 -393 -7
-22 -16 -43 -20 -49 -32 -46 -209 -611 -233 -745 -3 -14 -12 -54 -20 -90 -18
-74 -35 -153 -42 -190 -23 -122 -28 -149 -31 -175 -2 -16 -8 -55 -14 -85 -24
-137 -43 -291 -56 -440 -3 -41 -9 -86 -12 -100 -3 -14 -8 -953 -9 -2086 l-4
-2061 133 -77 c73 -43 140 -81 148 -86 8 -5 40 -23 70 -41 30 -18 75 -43 100
-57 25 -14 484 -280 1020 -590 536 -311 996 -577 1021 -591 68 -39 336 -194
367 -212 15 -9 87 -51 160 -93 l133 -76 157 91 c86 51 175 102 197 114 67 38
459 264 475 275 13 8 130 76 225 130 17 10 102 59 190 110 88 52 176 103 197
114 48 27 238 138 260 151 9 5 29 17 45 26 15 8 84 48 153 89 69 40 141 82
160 92 82 44 151 85 162 96 7 7 15 12 19 12 7 0 191 105 229 130 8 6 21 13 29
17 8 3 64 35 125 71 61 35 205 118 319 184 l208 120 -4 2077 c-2 1142 -6 2092
-9 2111 -4 19 -9 71 -13 115 -4 44 -8 94 -10 110 -2 17 -6 55 -10 85 -3 30 -8
66 -10 80 -3 14 -7 45 -10 69 -3 23 -7 55 -10 70 -2 14 -12 69 -20 121 -9 52
-18 104 -20 115 -3 11 -6 34 -9 50 -3 17 -14 71 -26 120 -11 50 -23 104 -26
120 -46 226 -172 609 -305 925 -25 60 -136 279 -189 375 -59 108 -263 411
-300 445 -3 3 -27 32 -54 65 -95 114 -290 302 -406 390 -36 27 -67 52 -70 55
-12 13 -202 132 -275 172 -101 55 -171 88 -260 122 -38 15 -79 31 -90 36 -67
30 -333 100 -447 119 -128 21 -193 31 -243 37 -52 6 -571 14 -577 9z m602
-729 c211 -37 315 -67 466 -132 630 -270 1078 -896 1319 -1839 24 -93 46 -183
48 -200 3 -16 12 -64 21 -105 17 -83 32 -172 41 -240 3 -25 8 -56 10 -70 2
-14 7 -47 10 -75 3 -27 7 -68 10 -90 23 -204 28 -333 29 -822 l1 -483 -1075
-1 c-591 0 -1614 -1 -2273 -2 -660 -1 -1203 1 -1209 4 -10 7 -6 1051 5 1099 3
14 8 59 11 100 3 41 8 86 10 100 2 14 8 52 12 85 17 139 23 177 55 350 63 337
176 717 284 960 169 378 327 618 560 850 303 302 695 486 1105 521 41 4 77 8
79 10 11 10 407 -7 481 -20z m1051 -4895 l67 -1 -96 -225 -97 -225 -427 0
c-401 0 -428 -1 -429 -17 -4 -72 -3 -587 1 -593 6 -9 248 -23 563 -31 48 -2
87 -5 87 -7 0 -5 -74 -171 -140 -317 -15 -33 -40 -87 -55 -120 -15 -33 -122
-269 -237 -525 -116 -256 -228 -503 -248 -550 -21 -47 -54 -121 -75 -165 -20
-44 -54 -118 -75 -165 -21 -47 -49 -110 -63 -140 -14 -30 -46 -102 -72 -160
-26 -58 -48 -106 -50 -108 -1 -1 -22 41 -45 95 -24 54 -63 140 -87 191 -23 51
-43 95 -43 97 0 3 -15 38 -34 77 -67 142 -116 249 -116 253 0 2 -18 43 -40 90
-22 47 -40 88 -40 90 0 1 -18 41 -39 87 -22 45 -72 155 -111 243 -39 88 -83
184 -97 214 -14 30 -40 89 -58 130 -18 42 -48 110 -67 151 -44 93 -74 159
-105 230 -29 64 -38 84 -92 204 -23 48 -39 92 -36 96 3 5 47 9 98 10 50 1 137
3 192 5 55 2 150 6 212 9 62 2 117 7 122 10 5 3 10 97 11 208 1 112 3 245 4
296 1 59 -2 92 -8 93 -31 3 -546 17 -701 18 l-80 1 -37 68 c-21 37 -51 90 -66
117 -148 260 -150 264 -134 267 12 2 2429 1 2743 -1z"/>
</g>
</svg>
